<?xml version="1.0" encoding="UTF-8"?>
<svg width="36px" height="37px" viewBox="0 0 36 37" version="1.1" xmlns="http://www.w3.org/2000/svg" xmlns:xlink="http://www.w3.org/1999/xlink">
    <title>Group</title>
    <g id="Page-1" stroke="none" stroke-width="1" fill="none" fill-rule="evenodd">
        <g id="Group" transform="translate(-0.000000, -0.000240)">
            <path d="M10.9374503,30.22404 L10.9374503,33.60965 C10.9374503,34.57132 10.4602603,35.08446 9.5931603,35.08446 C8.7211893,35.08446 8.2411403,34.55652 8.2411403,33.56861 L8.2411403,30.22775 L7.0415113,30.22775 L7.0415113,33.60965 C7.0415113,35.27367 7.9658103,36.22724 9.5773503,36.22724 C11.2041403,36.22724 12.1370803,35.2554 12.1370803,33.56087 L12.1370803,30.22404 L10.9374503,30.22404 Z" id="Path" fill="#232527"></path>
            <polygon id="Path" fill="#232527" points="15.3511203 30.22402 12.7456403 36.13506 13.9701703 36.13506 14.4731003 34.99027 14.5091003 34.90447 17.2158403 34.90447 17.7466903 36.13506 19.0045203 36.13506 16.4232603 30.25902 16.4000603 30.22402"></polygon>
            <polygon id="Path" fill="#232527" points="22.4839603 30.22404 21.1413603 34.29121 19.8344203 30.22707 18.5577503 30.22707 20.6185803 36.13876 21.6119903 36.13876 22.9572903 32.25527 24.3015703 36.13876 25.3034003 36.13876 27.3591803 30.22707 26.1151503 30.22707 24.8055103 34.29121 23.4625703 30.22404"></polygon>
            <polygon id="Path" fill="#232527" points="34.2235803 30.22404 34.2235803 36.13002 35.4074003 36.13002 35.4074003 30.22404"></polygon>
            <polygon id="Path" fill="#232527" points="0.268614295 30.22439 0.268614295 36.13844 1.4685813 36.13844 1.4685813 33.73649 4.1780093 33.73649 4.1780093 36.13844 5.3783113 36.13844 5.3783113 30.22439 4.1780093 30.22439 4.1780093 32.61019 1.4685813 32.61019 1.4685813 30.22439"></polygon>
            <polygon id="Path" fill="#232527" points="28.3266903 30.22839 28.3266903 36.13437 32.7928403 36.13437 32.7928403 35.05753 29.5105103 35.05753 29.5105103 33.59314 31.6931203 33.59314 31.6931203 32.51597 29.5105103 32.51597 29.5105103 31.30524 32.6784603 31.30524 32.6784603 30.22839"></polygon>
            <polygon id="Path" fill="#FFFFFF" points="15.8594203 31.7207 16.7149203 33.70079 16.7119203 33.70079 16.7701203 33.83738 14.9551903 33.83738 15.0126903 33.70079 15.0116903 33.70079"></polygon>
            <path d="M15.2112503,8e-05 C14.7352903,0.04218 13.4490803,0.33494 13.4490803,0.33494 L13.4485603,0.33494 C10.5494903,1.08427 9.8642803,3.7151 9.8642803,3.7151 C9.7227103,4.15749 9.6584003,4.61087 9.6394803,5.03801 L9.6394803,5.61937 C9.6779503,6.51758 9.8777103,7.18827 9.8777103,7.18827 C10.8461003,11.48225 15.6074803,18.53787 16.6307903,20.02004 C16.7033903,20.09204 16.7615303,20.06604 16.7615303,20.06604 C16.8719803,20.03554 16.8633303,19.92961 16.8633303,19.92961 L16.8654303,19.93014 C18.4415803,4.17599 15.2112703,8e-05 15.2112703,8e-05 L15.2112503,8e-05 Z" id="Path" fill="#CF0A2C"></path>
            <path d="M20.4192003,0 C20.4192003,0 17.1747603,4.17819 18.7521203,19.9415 L18.7542203,19.9415 C18.7664203,20.04157 18.8374203,20.06242 18.8374203,20.06242 C18.9429803,20.10332 18.9971003,20.00192 18.9971003,20.00192 L18.9976303,20.00292 C20.0471803,18.48291 24.7814303,11.46569 25.7455403,7.18819 C25.7455403,7.18819 26.2682703,5.11787 25.7636403,3.71502 C25.7636403,3.71502 25.0469503,1.04345 22.1442203,0.33745 C22.1442203,0.33745 21.3077103,0.12509 20.4192603,0 L20.4192003,0 Z" id="Path" fill="#CF0A2C"></path>
            <path d="M5.4542233,4.72941 C5.4542233,4.72941 2.6919523,7.35126 2.5546603,10.13073 L2.5557603,10.13073 L2.5557603,10.55189 C2.5578603,10.58359 2.5594603,10.61569 2.5614603,10.64799 C2.6804483,12.88926 4.3665163,14.21573 4.3665163,14.21573 C7.0831333,16.86339 13.6610803,20.20619 15.1896303,20.96467 C15.2110403,20.97267 15.2900103,20.99847 15.3363903,20.93987 C15.3363903,20.93987 15.3605203,20.92157 15.3715303,20.88867 L15.3715303,20.81887 C15.3704303,20.81487 15.3683303,20.81087 15.3663303,20.80647 L15.3668603,20.80647 C11.1808903,11.66199 5.4542843,4.72941 5.4542843,4.72941 L5.4542233,4.72941 Z" id="Path" fill="#CF0A2C"></path>
            <path d="M30.1695103,4.7294 C30.1695103,4.7294 24.4601803,11.64031 20.2760603,20.76625 L20.2776603,20.76572 C20.2776603,20.76572 20.2282503,20.87153 20.3081503,20.93987 C20.3081503,20.93987 20.3319903,20.95787 20.3649903,20.96517 L20.4228703,20.96517 C20.4332703,20.96217 20.4444303,20.95817 20.4554303,20.95067 L20.4554303,20.95167 C22.0254703,20.17244 28.5525203,16.85161 31.2563203,14.21616 C31.2563203,14.21616 32.9685803,12.84115 33.0582703,10.63344 C33.2559803,7.56717 30.1695603,4.7294 30.1695603,4.7294 L30.1695103,4.7294 Z" id="Path" fill="#CF0A2C"></path>
            <path d="M35.3082203,13.80802 C35.3082203,13.80802 26.0002703,18.80312 21.1876303,22.04938 L21.1881603,22.04991 L21.1892603,22.05091 C21.1892603,22.05091 21.1019203,22.10811 21.1324103,22.2106 C21.1324103,22.2106 21.1780803,22.2933 21.2445503,22.2933 L21.2445503,22.29383 C22.9683703,22.2967918 29.4913503,22.30413 29.6548903,22.27363 C29.6548903,22.27363 30.4983403,22.23993 31.5405603,21.83954 C31.5405603,21.83954 33.8607803,21.10189 35.0659303,18.46766 C35.0659303,18.46766 35.6166103,17.36618 35.6245503,15.81872 L35.6245503,15.75312 C35.6205503,15.15635 35.5364803,14.49571 35.3082903,13.80802 L35.3082203,13.80802 Z" id="Path" fill="#CF0A2C"></path>
            <path d="M0.312935295,13.83132 C-0.533947705,16.45306 0.606168295,18.5656 0.608009295,18.56901 C1.7961523,21.07947 4.0641293,21.84013 4.0641293,21.84013 C5.1112313,22.27032 6.1585733,22.30005 6.1585733,22.30005 C6.3221103,22.32995 12.6713103,22.30305 14.3725403,22.29505 C14.4445403,22.29452 14.4841603,22.22215 14.4841603,22.22215 C14.4891603,22.21415 14.4935603,22.20615 14.4955403,22.19885 L14.4955403,22.13325 C14.4814403,22.08935 14.4438603,22.05835 14.4438603,22.05835 L14.4449603,22.05782 C9.6347303,18.81263 0.313010295,13.83145 0.313010295,13.83145 L0.312935295,13.83132 Z" id="Path" fill="#CF0A2C"></path>
            <path d="M14.1782403,23.10103 L3.2285193,23.48499 C4.4159693,25.60178 6.4157773,27.24689 8.4989983,26.74164 C9.9366303,26.38223 13.1935003,24.11052 14.2686703,23.34288 L14.2650703,23.33988 C14.3486703,23.26478 14.3188103,23.20449 14.3188103,23.20449 C14.2913103,23.10619 14.1782503,23.10629 14.1782503,23.10629 L14.1782403,23.10103 Z" id="Path" fill="#CF0A2C"></path>
            <path d="M21.4305103,23.10903 L21.4294103,23.11303 C21.4294103,23.11303 21.3332803,23.12523 21.3064203,23.19723 C21.3064203,23.19723 21.2830603,23.29563 21.3477603,23.3445 L21.3466603,23.3455 C22.3949903,24.09726 25.5729403,26.31905 27.1039303,26.75046 C27.1039303,26.75046 27.3358603,26.82936 27.7245603,26.84346 L27.9581403,26.84346 C28.9838903,26.80746 30.7708103,26.28053 32.3945603,23.49069 L21.4305103,23.10903 Z" id="Path" fill="#CF0A2C"></path>
        </g>
    </g>
</svg>